HIERARCHY
ROOT Hips
{
	OFFSET 0.00000 0.00000 0.00000
	CHANNELS 6 Xposition Yposition Zposition Zrotation Yrotation Xrotation 
	JOINT LHipJoint
	{
		OFFSET 0 0 0
		CHANNELS 3 Zrotation Yrotation Xrotation
		JOINT LeftUpLeg
		{
			OFFSET 1.62964 -1.40469 0.78906
			CHANNELS 3 Zrotation Yrotation Xrotation
			JOINT LeftLeg
			{
				OFFSET 2.29640 -6.30932 0.00000
				CHANNELS 3 Zrotation Yrotation Xrotation
				JOINT LeftFoot
				{
					OFFSET 2.29451 -6.30412 0.00000
					CHANNELS 3 Zrotation Yrotation Xrotation
					JOINT LeftToeBase
					{
						OFFSET 0.03611 -0.09921 1.56387
						CHANNELS 3 Zrotation Yrotation Xrotation
						End Site
						{
							OFFSET 0.00000 -0.00000 0.80291
						}
					}
				}
			}
		}
	}
	JOINT RHipJoint
	{
		OFFSET 0 0 0
		CHANNELS 3 Zrotation Yrotation Xrotation
		JOINT RightUpLeg
		{
			OFFSET -1.73712 -1.40469 0.78906
			CHANNELS 3 Zrotation Yrotation Xrotation
			JOINT RightLeg
			{
				OFFSET -2.28137 -6.26801 0.00000
				CHANNELS 3 Zrotation Yrotation Xrotation
				JOINT RightFoot
				{
					OFFSET -2.28681 -6.28298 0.00000
					CHANNELS 3 Zrotation Yrotation Xrotation
					JOINT RightToeBase
					{
						OFFSET -0.15927 -0.43759 1.61103
						CHANNELS 3 Zrotation Yrotation Xrotation
						End Site
						{
							OFFSET -0.00000 -0.00000 0.84630
						}
					}
				}
			}
		}
	}
	JOINT LowerBack
	{
		OFFSET 0 0 0
		CHANNELS 3 Zrotation Yrotation Xrotation
		JOINT Spine
		{
			OFFSET -0.04227 2.04338 -0.00225
			CHANNELS 3 Zrotation Yrotation Xrotation
			JOINT Spine1
			{
				OFFSET -0.02148 2.04482 -0.04273
				CHANNELS 3 Zrotation Yrotation Xrotation
				JOINT Neck
				{
					OFFSET 0 0 0
					CHANNELS 3 Zrotation Yrotation Xrotation
					JOINT Neck1
					{
						OFFSET 0.09180 1.44629 0.19359
						CHANNELS 3 Zrotation Yrotation Xrotation
						JOINT Head
						{
							OFFSET 0.00887 1.40645 0.14750
							CHANNELS 3 Zrotation Yrotation Xrotation
							End Site
							{
								OFFSET -0.00669 1.50671 0.03707
							}
						}
					}
				}
				JOINT LeftShoulder
				{
					OFFSET 0 0 0
					CHANNELS 3 Zrotation Yrotation Xrotation
					JOINT LeftArm
					{
						OFFSET 2.17674 1.86763 -0.06520
						CHANNELS 3 Zrotation Yrotation Xrotation
						JOINT LeftForeArm
						{
							OFFSET 4.65776 -0.00000 0.00000
							CHANNELS 3 Zrotation Yrotation Xrotation
							JOINT LeftHand
							{
								OFFSET 3.55539 -0.00000 0.00000
								CHANNELS 3 Zrotation Yrotation Xrotation
								JOINT LeftFingerBase
								{
									OFFSET 0 0 0
									CHANNELS 3 Zrotation Yrotation Xrotation
									JOINT LeftHandIndex1
									{
										OFFSET 0.70726 -0.00000 0.00000
										CHANNELS 3 Zrotation Yrotation Xrotation
										End Site
										{
											OFFSET 0.57022 -0.00000 0.00000
										}
									}
								}
								JOINT LThumb
								{
									OFFSET 0 0 0
									CHANNELS 3 Zrotation Yrotation Xrotation
									End Site
									{
										OFFSET 0.57892 -0.00000 0.57892
									}
								}
							}
						}
					}
				}
				JOINT RightShoulder
				{
					OFFSET 0 0 0
					CHANNELS 3 Zrotation Yrotation Xrotation
					JOINT RightArm
					{
						OFFSET -2.80694 1.55459 -0.32496
						CHANNELS 3 Zrotation Yrotation Xrotation
						JOINT RightForeArm
						{
							OFFSET -4.71925 -0.00000 -0.00000
							CHANNELS 3 Zrotation Yrotation Xrotation
							JOINT RightHand
							{
								OFFSET -3.56990 -0.00000 0.00000
								CHANNELS 3 Zrotation Yrotation Xrotation
								JOINT RightFingerBase
								{
									OFFSET 0 0 0
									CHANNELS 3 Zrotation Yrotation Xrotation
									JOINT RightHandIndex1
									{
										OFFSET -0.50776 -0.00000 0.00000
										CHANNELS 3 Zrotation Yrotation Xrotation
										End Site
										{
											OFFSET -0.40937 -0.00000 0.00000
										}
									}
								}
								JOINT RThumb
								{
									OFFSET 0 0 0
									CHANNELS 3 Zrotation Yrotation Xrotation
									End Site
									{
										OFFSET -0.41562 -0.00000 0.41562
									}
								}
							}
						}
					}
				}
			}
		}
	}
}
MOTION
Frames: 10
Frame Time: 0.2
0.00 0.00 0.00 0 0 0 0 0 0 -21 0 0 0 0 0 0 0 0 0 0 0 0 0 0 21 0 0 0 0 0 0 0 0 0 0 0 0 0 0 0 0 0 0 0 0 0 0 -16 0 0 21 0 0 11 0 0 0 -8 0 0 0 0 0 0 0 0 0 0 0 0 0 0 0 0 0 0 0 0 8 0 0 0 0 0 0 0 0 0 0 0 0 0 0 0 0 0
0.00 0.00 0.00 182.4170 8.9768 -154.0410 0.0000 0.0000 0.0000 -17.4539 -15.5275 -25.4872 0.7354 5.4786 15.2788 0.4062 -0.1719 -11.9815 0.4439 -4.2747 -11.8507 0.0000 0.0000 0.0000 17.7034 20.9455 -31.0398 -2.0486 -8.9666 25.6910 -2.2469 8.8448 -26.9401 -5.0009 13.3849 -40.8267 -7.3417 -3.2181 -23.4262 0.9482 -2.1512 0.2716 4.5717 -1.4552 13.8707 -0.2514 -10.3592 -0.5159 2.1371 -13.5940 17.0338 0.0685 -6.2158 5.4041 -0.0000 0.0000 0.0000 -83.3285 1.9195 24.0210 15.4481 -24.7666 -3.4114 -0.0000 0.0000 -0.5116 23.5416 -13.5721 -5.8376 -7.1250 0.0000 -0.0000 -2.6313 15.2379 1.8492 -0.0000 0.0000 0.0000 91.7069 -8.4614 9.6226 -20.3769 31.0937 -5.7247 0.0000 -0.0000 -5.2789 -15.7040 -52.4925 12.5734 7.1250 -0.0000 -0.0000 63.1902 -77.0126 -50.7737
0.00 0.00 0.00 182.5190 11.2885 -155.0000 0.0000 0.0000 0.0000 -17.6317 -14.8178 -24.8904 0.7953 5.6922 15.8940 0.4388 1.0889 -12.9550 0.3347 -3.7178 -10.2839 0.0000 0.0000 0.0000 16.9389 18.8365 -38.4136 -5.4750 -13.8996 42.8366 -2.9216 7.4313 -30.9678 -5.5313 13.9583 -43.0705 -8.6560 -3.2334 -21.5654 0.4779 -1.9721 0.9458 4.8603 -1.4878 13.6165 0.0880 -10.1872 -0.5464 2.9859 -13.5564 16.0829 0.2947 -6.1861 5.1497 0.0000 -0.0000 0.0000 -81.5020 1.9205 24.2563 15.7205 -25.1402 -3.5264 -0.0000 0.0000 -1.4668 23.5860 -13.9188 -5.9953 -7.1250 0.0000 -0.0000 -2.6216 14.8592 1.8636 0.0000 -0.0000 0.0000 92.5353 -8.1291 11.2360 -21.1693 32.0255 -6.1395 0.0000 -0.0000 -6.5714 -16.0328 -53.4822 13.0043 7.1250 -0.0000 -0.0000 67.3266 -77.4260 -54.9949
0.00 0.00 0.00 184.0220 11.8974 -155.4690 0.0000 0.0000 0.0000 -15.8093 -15.2507 -24.0767 0.8713 5.9515 16.6439 0.4710 2.7594 -14.2663 0.2705 -3.3458 -9.2429 0.0000 0.0000 0.0000 15.8253 16.3467 -46.2472 -10.6228 -17.7455 61.5504 -3.1871 5.2702 -32.6838 -4.1433 12.3487 -36.9771 -8.3487 -3.3723 -20.5160 0.5404 -2.3742 1.3552 4.6312 -1.6820 13.5411 0.4320 -10.1277 -0.4929 2.6901 -13.4507 16.6434 0.1503 -6.1089 5.2694 0.0000 0.0000 0.0000 -79.7942 1.6978 23.3135 15.0531 -24.2201 -3.2477 -0.0000 0.0000 -0.5367 22.8119 -13.6150 -5.6544 -7.1250 0.0000 -0.0000 -3.1337 15.2729 2.2009 0.0000 0.0000 0.0000 93.1257 -8.9988 12.7581 -22.7558 33.8207 -7.0019 0.0000 -0.0000 -9.0515 -15.4779 -53.7789 12.5928 7.1250 -0.0000 -0.0000 68.7830 -77.2791 -56.1909
0.00 0.00 0.00 196.5160 9.8514 -157.9390 0.0000 0.0000 0.0000 0.9320 -13.8947 -19.4647 2.2850 9.4361 27.1694 1.4353 3.9616 -24.3603 0.9287 -6.1393 -17.1891 0.0000 0.0000 0.0000 -8.8396 7.2480 -46.6617 -3.2941 -11.1565 32.8096 -0.3896 -9.9110 -19.2544 -1.4912 7.7144 -21.8500 -8.9355 -3.8172 -19.3384 2.2604 -3.2109 1.7733 6.6894 -2.2470 13.6354 0.6451 -11.6025 -0.3580 4.8814 -15.7818 21.3981 0.5364 -6.7272 6.9772 -0.0000 0.0000 0.0000 -72.2908 5.7189 21.7072 17.3217 -27.2799 -4.2337 -0.0000 0.0000 -3.1499 23.2194 -12.0362 -5.1121 -7.1250 0.0000 -0.0000 -2.7724 16.9274 1.8472 -0.0000 0.0000 0.0000 93.2406 -14.2394 7.4530 -22.0297 33.0106 -6.6020 0.0000 -0.0000 -7.7718 -13.8269 -51.0118 10.8301 7.1250 -0.0000 -0.0000 58.4168 -75.7216 -45.1994
0.00 0.00 0.00 193.5080 3.6367 -154.0500 0.0000 0.0000 0.0000 14.2647 -14.8984 -20.3002 2.9913 10.6810 31.2115 2.3824 3.1548 -30.4232 3.4091 -11.3295 -33.3994 0.0000 0.0000 0.0000 -2.1586 -0.9332 -62.0681 -6.6405 -15.0215 47.5012 -0.6665 4.1418 -14.5760 -5.7866 14.2183 -44.1193 -11.4783 -3.8969 -13.8157 1.2375 -3.2663 2.8365 7.0887 -2.3844 11.7512 0.2322 -9.7642 -1.3689 5.8510 -13.5293 18.0556 1.0426 -5.8642 6.1032 -0.0000 -0.0000 0.0000 -68.8637 3.7972 21.0992 25.8031 -37.0136 -8.7688 -0.0000 0.0000 -7.3184 21.1060 -9.4118 -3.6117 -7.1250 0.0000 -0.0000 -4.1782 19.9180 2.5115 -0.0000 -0.0000 0.0000 87.5101 -18.0861 16.3592 -20.7959 31.5894 -5.9427 0.0000 -0.0000 -4.7755 -8.3435 -48.2124 6.2406 7.1250 -0.0000 -0.0000 53.7040 -72.3085 -37.7378
0.00 0.00 0.00 170.6360 7.3909 -145.7270 0.0000 0.0000 0.0000 6.0127 -13.0417 -32.5661 2.9921 10.6823 31.2157 -4.7785 35.9852 -7.2514 1.1580 6.8318 19.2180 0.0000 0.0000 0.0000 -6.4420 8.0299 -76.3548 -11.7842 -18.2979 65.3030 -3.1812 3.8942 -32.8889 -1.2431 7.0695 -19.9215 -3.4361 -2.9426 -0.1036 -0.2538 -3.5276 5.4121 1.4766 -1.7923 5.8737 -2.1450 -3.7729 -0.8592 1.3044 -4.8317 9.0938 0.6492 -2.3300 3.1538 0.0000 -0.0000 0.0000 -70.2571 -7.1388 33.7387 42.5741 -49.5231 -20.3762 -0.0000 0.0000 -10.2529 26.6915 -12.9539 -6.4302 -7.1250 0.0000 -0.0000 -0.4284 15.5425 0.2979 0.0000 -0.0000 0.0000 55.9606 13.4112 26.6454 -30.6152 41.4149 -11.8145 0.0000 -0.0000 -11.6288 -15.5265 -45.6981 11.2455 7.1250 -0.0000 -0.0000 40.4992 -73.3726 -28.3930
0.00 0.00 0.00 172.0690 8.5990 -145.5800 0.0000 0.0000 0.0000 1.8434 -12.7314 -40.0548 7.3819 15.6453 50.3045 -3.5718 31.7884 -6.1756 0.0102 0.6510 1.7890 0.0000 0.0000 0.0000 -2.8249 11.2553 -71.4319 -9.5985 -17.1778 58.1380 -2.7216 4.5182 -30.1998 -1.1322 6.7579 -19.0000 -3.5670 -2.6953 -2.4318 0.0031 -3.2035 5.0640 1.7346 -1.6848 6.8488 -2.4732 -3.1987 0.3438 1.6151 -4.0505 9.3044 0.8487 -1.9271 3.0038 0.0000 0.0000 0.0000 -71.5966 -3.0054 33.9299 39.9190 -48.0219 -18.3790 -0.0000 0.0000 -10.6561 26.4007 -13.0006 -6.3721 -7.1250 0.0000 -0.0000 -0.6316 15.5263 0.4395 0.0000 0.0000 0.0000 58.5145 12.8404 30.8376 -28.9226 39.9518 -10.7110 0.0000 -0.0000 -9.8628 -14.4620 -44.3760 10.2246 7.1250 -0.0000 -0.0000 38.4392 -72.0611 -25.8072
0.00 0.00 0.00 174.3220 9.0209 -146.0320 0.0000 0.0000 0.0000 -9.6493 -18.3065 -47.8204 11.8793 18.3392 65.6057 -0.3608 10.9879 -7.2369 3.1866 -10.9911 -32.2499 0.0000 0.0000 0.0000 3.2729 16.3245 -58.3165 -5.1783 -13.5818 41.5872 -2.0554 2.9795 -26.3573 -0.3627 3.8687 -10.7077 -2.7990 -1.4995 -7.0328 -0.8658 -1.4984 4.8840 0.4369 -0.8187 9.1866 0.9110 -3.2925 -2.3241 1.0516 -4.1338 13.4008 0.0099 -1.7386 4.8756 -0.0000 -0.0000 0.0000 -72.2430 -3.0680 35.2084 28.6813 -39.7359 -10.5564 -0.0000 0.0000 -6.9873 24.5597 -13.3517 -6.0242 -7.1250 0.0000 -0.0000 -1.9198 15.3601 1.3434 -0.0000 -0.0000 0.0000 69.2081 8.1632 29.1872 -25.7681 36.9788 -8.7478 0.0000 -0.0000 -7.4755 -14.2181 -42.9857 9.8014 7.1250 -0.0000 -0.0000 35.7496 -70.9492 -23.0318
0.00 0.00 0.00 175.4690 5.7339 -146.3700 0.0000 0.0000 0.0000 -14.5326 -27.5215 -46.7274 7.0783 15.3975 49.1700 0.7166 -0.3961 -15.8668 3.4538 -11.3957 -33.6264 0.0000 0.0000 0.0000 9.3366 16.7834 -45.8474 -2.0558 -8.9814 25.7370 -1.4669 0.1203 -22.8790 -0.0542 1.5018 -4.1307 -4.4062 -1.7757 -11.6703 -0.6621 -1.5866 3.2392 1.4514 -0.9942 10.1803 0.9883 -3.4323 -2.0933 1.8485 -4.1227 17.4415 0.2250 -1.4779 5.6191 -0.0000 -0.0000 0.0000 -74.4701 -2.0227 33.1737 22.6412 -33.6941 -6.9382 -0.0000 0.0000 -3.7365 23.2399 -12.3552 -5.2499 -7.1250 0.0000 -0.0000 -2.7736 16.5817 1.8689 -0.0000 -0.0000 0.0000 77.7944 1.5744 25.1161 -22.8106 33.8811 -7.0324 0.0000 -0.0000 -6.3538 -14.6120 -43.4469 10.1641 7.1250 -0.0000 -0.0000 36.2675 -71.4309 -23.7601
